<?xml version="1.0" encoding="UTF-8"?>
<svg width="16px" height="16px" viewBox="0 0 16 16" version="1.1" xmlns="http://www.w3.org/2000/svg" xmlns:xlink="http://www.w3.org/1999/xlink">
    <title>opp</title>
    <g id="Aanbod-Lijst" stroke="none" stroke-width="1" fill="none" fill-rule="evenodd">
        <g transform="translate(-520.000000, -1462.000000)" fill="#808285" fill-rule="nonzero" id="Pand6">
            <g transform="translate(504.000000, 1102.000000)">
                <path d="M23.6876525,360.109566 L16.1876525,366.109566 C16.0690449,366.204452 16,366.348108 16,366.5 L16,375.5 C16,375.776142 16.2238576,376 16.5,376 L22.5,376 C22.7761424,376 23,375.776142 23,375.5 L23,372.5 C23,371.416667 23.3125,371 24,371 C24.6875,371 25,371.416667 25,372.5 L25,375.5 C25,375.776142 25.2238576,376 25.5,376 L31.5,376 C31.7761424,376 32,375.776142 32,375.5 L32,366.5 C32,366.348108 31.9309551,366.204452 31.8123475,366.109566 L24.3123475,360.109566 C24.1297382,359.963478 23.8702618,359.963478 23.6876525,360.109566 Z M24,361.14 L31,366.74 L31,375 L26,375 L26,372.5 C26,370.916667 25.3125,370 24,370 L23.8391972,370.004756 C22.6314019,370.077546 22,370.982639 22,372.5 L22,375 L17,375 L17,366.74 L24,361.14 Z" id="opp"></path>
            </g>
        </g>
    </g>
</svg>