<?xml version="1.0" encoding="UTF-8"?>
<svg width="16px" height="16px" viewBox="0 0 16 16" version="1.1" xmlns="http://www.w3.org/2000/svg" xmlns:xlink="http://www.w3.org/1999/xlink">
    <title>perceel</title>
    <g id="Aanbod-Lijst" stroke="none" stroke-width="1" fill="none" fill-rule="evenodd">
        <g transform="translate(-1041.000000, -1462.000000)" fill="#808285" fill-rule="nonzero" id="Pand7">
            <g transform="translate(960.000000, 1102.000000)">
                <path d="M97,360 L97,376 L81,376 L81,360 L97,360 Z M96,361 L82,361 L82,375 L96,375 L96,361 Z M88.6876525,364.109566 C88.8702618,363.963478 89.1297382,363.963478 89.3123475,364.109566 L89.3123475,364.109566 L92.8123475,366.909566 C92.9309551,367.004452 93,367.148108 93,367.3 L93,367.3 L93,371.5 C93,371.776142 92.7761424,372 92.5,372 L92.5,372 L90,372 C89.7238576,372 89.5,371.776142 89.5,371.5 L89.5,371.5 L89.5,370.1 C89.5,369.632738 89.3793292,369.5 89,369.5 C88.6206708,369.5 88.5,369.632738 88.5,370.1 L88.5,370.1 L88.5,371.5 C88.5,371.776142 88.2761424,372 88,372 L88,372 L85.5,372 C85.2238576,372 85,371.776142 85,371.5 L85,371.5 L85,367.3 C85,367.148108 85.0690449,367.004452 85.1876525,366.909566 L85.1876525,366.909566 Z M89,365.14 L86,367.54 L86,371 L87.5,371 L87.5,370.1 C87.5,369.156118 87.9870148,368.567964 88.8448008,368.505526 L88.8448008,368.505526 L89,368.5 C89.9540042,368.5 90.5,369.100595 90.5,370.1 L90.5,370.1 L90.5,371 L92,371 L92,367.54 L89,365.14 Z" id="perceel"></path>
            </g>
        </g>
    </g>
</svg>