<?xml version="1.0" encoding="UTF-8"?>
<svg width="16px" height="16px" viewBox="0 0 16 16" version="1.1" xmlns="http://www.w3.org/2000/svg" xmlns:xlink="http://www.w3.org/1999/xlink">
    <title>slpk</title>
    <g id="Aanbod-Lijst" stroke="none" stroke-width="1" fill="none" fill-rule="evenodd">
        <g transform="translate(-976.000000, -1462.000000)" fill="#808285" id="Pand7">
            <g transform="translate(960.000000, 1102.000000)">
                <path d="M28.5,360 C29.2796961,360 29.9204487,360.594888 29.9931334,361.35554 L30,361.5 L30.0003864,366.999924 C31.1606672,367.87162 31.9293666,369.236383 31.9953805,370.78311 L32,371 L32,371 L32,376 L31,376 L31,374 L17,374 L17,376 L16,376 L16,371 C16,369.401281 16.7503261,367.97781 17.9180384,367.062527 L18,367 L18,361.5 C18,360.720304 18.5948881,360.079551 19.35554,360.006867 L19.5,360 L28.5,360 Z M31,371 L17,371 L17,373 L31,373 L31,371 Z M27,367 L21,367 C19.1925226,367 17.6650496,368.198841 17.1693561,369.844747 L17.126,370 L30.873,370 L30.8362038,369.862507 C30.3637532,368.26561 28.9216907,367.089822 27.1998735,367.004917 L27,367 Z M28.5,361 L19.5,361 C19.2545401,361 19.0503916,361.176875 19.0080557,361.410124 L19,361.5 L19.0004611,366.415842 C19.3177692,366.277243 19.6522441,366.170623 19.999812,366.100056 L20,364 C20,363.447715 20.4477153,363 21,363 L27,363 C27.5522847,363 28,363.447715 28,364 L28.0009119,366.100203 C28.3489135,366.170912 28.683785,366.277764 29.001437,366.416672 L29,361.5 C29,361.25454 28.8231248,361.050392 28.5898756,361.008056 L28.5,361 Z M27,364 L21,364 L21,366 L27,366 L27,364 Z" id="slpk"></path>
            </g>
        </g>
    </g>
</svg>